<svg width="118" height="29" viewBox="0 0 118 29" fill="none" xmlns="http://www.w3.org/2000/svg">
<path d="M82.8692 17.1583H84.8889V25.375C82.3184 27.7917 78.6462 29 74.7292 29C66.1607 29 59.918 22.8375 59.918 14.5C59.918 6.1625 66.2219 0 74.7904 0C78.891 0 82.502 1.32917 85.0113 3.92708L83.7261 5.31667C81.2779 2.9 78.279 1.87292 74.9128 1.87292C67.5684 1.87292 62.0601 7.25 62.0601 14.4396C62.0601 21.5688 67.5072 27.0063 74.9128 27.0063C77.8505 27.0063 80.6659 26.2813 82.9304 24.4083" fill="#F8F8F8"/>
<path d="M88.0105 14.5C88.0105 6.22292 94.3756 0 103.005 0C111.574 0 118 6.1625 118 14.5C118 22.8375 111.635 29 103.005 29C94.3756 29 88.0105 22.7771 88.0105 14.5ZM115.858 14.5C115.858 7.25 110.35 1.93333 102.944 1.93333C95.5385 1.93333 90.0914 7.25 90.0914 14.5C90.0914 21.75 95.5997 27.0667 103.005 27.0667C110.35 27.0667 115.858 21.75 115.858 14.5Z" fill="#F8F8F8"/>
<path d="M28.582 24.6499V28.2749H41.3734C44.4948 28.0937 47.4326 27.9124 49.8195 26.7041C52.2064 25.4958 54.0425 23.9249 55.3278 21.8104C56.6131 19.7562 57.2863 17.2791 57.2863 14.4395C57.2863 11.5999 56.6131 9.12285 55.2666 7.06869C53.9201 4.9541 52.1452 3.38327 49.7583 2.17493C47.3714 1.02702 44.556 0.422852 41.4346 0.422852H28.0311L16.2801 17.9437L4.34544 0.483268H0V28.4562H4.77386V8.69994L15.056 23.5624H17.1981L29.9896 4.41035H41.1286C44.3724 4.41035 48.2894 5.3166 50.2479 7.1291C52.2676 8.9416 53.2469 11.4791 53.2469 14.5604C53.2469 17.6416 52.2064 20.1187 50.2479 21.9916C48.2282 23.8041 44.4336 24.7104 41.1286 24.7104H32.7438H28.582V24.6499Z" fill="#4DD8D3"/>
</svg>
